<?xml version="1.0" encoding="UTF-8"?>
<svg xmlns="http://www.w3.org/2000/svg" version="1.1" viewBox="0 0 32 32">
  <defs>
    <style>
      .cls-1 {
        fill: #58595b;
      }

      .cls-1, .cls-2, .cls-3 {
        stroke: #231f20;
        stroke-miterlimit: 10;
      }

      .cls-2 {
        fill: #fff;
      }

      .cls-3 {
        fill: #231f20;
      }

      .cls-4 {
        fill: #00aeef;
      }
    </style>
  </defs>
  <!-- Generator: Adobe Illustrator 28.7.9, SVG Export Plug-In . SVG Version: 1.2.0 Build 218)  -->
  <g>
    <g id="Layer_1">
      <rect class="cls-3" width="31.79" height="31.79"/>
      <polygon class="cls-1" points="24.54 28.59 7.19 28.56 11.55 4.96 20.26 4.81 24.54 28.59"/>
      <polygon class="cls-2" points="32 22.62 24.87 28.09 22.8 16.45 20.74 4.81 24.16 3.33 27.59 1.86 32.05 12.44 32 22.62"/>
      <rect class="cls-2" x="8.05" y="25.43" width="15.41" height="2.71"/>
      <rect class="cls-2" x="9.7" y="23.18" width="12.08" height="2.24"/>
      <rect class="cls-2" x="11.09" y="20.68" width="9.73" height="2.24"/>
      <rect class="cls-2" x="12.47" y="18.43" width="6.57" height="2.24"/>
      <polygon class="cls-3" points="18.82 18.31 12.47 18.07 11.26 5.31 20.2 5.31 18.82 18.31"/>
      <polygon class="cls-2" points="0 22.66 7.13 28.13 9.2 16.49 11.26 4.85 7.84 3.38 4.41 1.9 -.03 12.44 0 22.66"/>
      <polygon class="cls-4" points="25.67 20.62 17.5 14.6 14.3 24.04 15.29 14.08 5.44 15.85 14.59 11.92 7.94 4.25 16.11 10.28 19.3 .84 18.32 10.8 28.17 9.02 19.01 12.96 25.67 20.62"/>
    </g>
  </g>
</svg>